PathFileType	4	(X/Y/Z)	Kaydara	
DataRate	CameraRate	NumFrames	NumMarkers	Units	OrigDataRate	OrigDataStartFrame	OrigNumFrames	
240.00	240.00	4	72	mm	240.00	315	359	
Frame#	Time	Hips			RightUpLeg			RightLeg			RightFoot			RightFoot_End			LeftUpLeg			LeftLeg			LeftFoot			LeftFoot_End			Spine			Spine1			Spine2			Spine3			Neck			Head			Head_End			RightShoulder			RightArm			RightForeArm			RightHand			RightHandThumb1			RightHandThumb2			RightHandThumb3			RightHandThumb3_End			RightInHandIndex			RightHandIndex1			RightHandIndex2			RightHandIndex3			RightHandIndex3_End			RightInHandMiddle			RightHandMiddle1			RightHandMiddle2			RightHandMiddle3			RightHandMiddle3_End			RightInHandRing			RightHandRing1			RightHandRing2			RightHandRing3			RightHandRing3_End			RightInHandPinky			RightHandPinky1			RightHandPinky2			RightHandPinky3			RightHandPinky3_End			LeftShoulder			LeftArm			LeftForeArm			LeftHand			LeftHandThumb1			LeftHandThumb2			LeftHandThumb3			LeftHandThumb3_End			LeftInHandIndex			LeftHandIndex1			LeftHandIndex2			LeftHandIndex3			LeftHandIndex3_End			LeftInHandMiddle			LeftHandMiddle1			LeftHandMiddle2			LeftHandMiddle3			LeftHandMiddle3_End			LeftInHandRing			LeftHandRing1			LeftHandRing2			LeftHandRing3			LeftHandRing3_End			LeftInHandPinky			LeftHandPinky1			LeftHandPinky2			LeftHandPinky3			LeftHandPinky3_End			
		X1	Y1	Z1	X2	Y2	Z2	X3	Y3	Z3	X4	Y4	Z4	X5	Y5	Z5	X6	Y6	Z6	X7	Y7	Z7	X8	Y8	Z8	X9	Y9	Z9	X10	Y10	Z10	X11	Y11	Z11	X12	Y12	Z12	X13	Y13	Z13	X14	Y14	Z14	X15	Y15	Z15	X16	Y16	Z16	X17	Y17	Z17	X18	Y18	Z18	X19	Y19	Z19	X20	Y20	Z20	X21	Y21	Z21	X22	Y22	Z22	X23	Y23	Z23	X24	Y24	Z24	X25	Y25	Z25	X26	Y26	Z26	X27	Y27	Z27	X28	Y28	Z28	X29	Y29	Z29	X30	Y30	Z30	X31	Y31	Z31	X32	Y32	Z32	X33	Y33	Z33	X34	Y34	Z34	X35	Y35	Z35	X36	Y36	Z36	X37	Y37	Z37	X38	Y38	Z38	X39	Y39	Z39	X40	Y40	Z40	X41	Y41	Z41	X42	Y42	Z42	X43	Y43	Z43	X44	Y44	Z44	X45	Y45	Z45	X46	Y46	Z46	X47	Y47	Z47	X48	Y48	Z48	X49	Y49	Z49	X50	Y50	Z50	X51	Y51	Z51	X52	Y52	Z52	X53	Y53	Z53	X54	Y54	Z54	X55	Y55	Z55	X56	Y56	Z56	X57	Y57	Z57	X58	Y58	Z58	X59	Y59	Z59	X60	Y60	Z60	X61	Y61	Z61	X62	Y62	Z62	X63	Y63	Z63	X64	Y64	Z64	X65	Y65	Z65	X66	Y66	Z66	X67	Y67	Z67	X68	Y68	Z68	X69	Y69	Z69	X70	Y70	Z70	X71	Y71	Z71	X72	Y72	Z72	

315	1.308	6198.941	914.58397	126.699	6238.795007307326	879.913475376457	49.6923926489213	6139.30955243419	486.4863578217197	-54.208002839873465	6144.771855923794	95.45233425894594	-133.44408518146733	5993.860598507954	17.83468331850405	-45.467758862045834	6171.774232554451	922.9873479036399	216.6532114737243	6081.7987671929595	519.8238279890696	285.680006372462	5995.3604681168945	93.70591119632304	352.61234263499176	5875.402590445887	9.871348647047697	229.6479056803494	6140.213973906755	1033.3146810557905	72.43683558634761	6079.8983341134235	1086.534524453412	17.879684615588637	6013.699768858137	1135.1098386555536	-41.30638082604748	5945.938006440637	1171.6955181240744	-100.57715006249857	5872.511876084366	1211.2123923479853	-162.4347576949358	5804.6189689090625	1248.3712205205334	-216.48751809111909	5675.248745407711	1336.789187390646	-246.32740624812294	5903.691341702438	1176.1393126308683	-163.98517454420409	5882.977627829848	1062.4927665075732	-225.6750078707023	5823.274620964999	939.8794580431444	2.91228109078871	5708.261811401679	791.0776454300318	192.5482605976201	5696.883338576083	796.5127684134663	226.29920823241267	5707.0291572801325	789.1935086235223	261.35623617163554	5714.84638365898	780.5324074870149	285.1208863135783	5722.006306177871	770.2631425683356	304.3771848982466	5696.389513666649	784.3622190534102	227.3187161994033	5690.321385955229	760.3313021552025	276.9697372195925	5697.553138363664	742.9316326088326	310.1884832342781	5708.195111446067	736.510803908345	326.78459690417486	5721.149133375361	734.1618898236776	337.7853166096577	5699.189614147949	775.4730622896684	223.76182898853995	5694.782251539352	747.2260730593512	270.2664012332554	5703.076988362588	727.1437695338467	305.88262032034635	5716.109761688097	718.8714493641323	325.6019071716112	5730.377940813829	716.045688458059	337.4912340991156	5701.210129997072	769.7848928918035	220.00105013355136	5698.684760095516	739.4701528850619	258.4699104141878	5706.335049523593	720.8910717609714	288.79362727985836	5719.12955124801	712.3407424530747	307.43233521491476	5732.651087562827	709.4132297491036	318.43021751020484	5704.601732228302	764.0922569503202	214.07703515590256	5703.996588152099	732.6993384356982	245.78869332098884	5710.790632028724	716.2767125523667	268.7803833372627	5720.44611776253	709.2926081404516	281.7513140053219	5732.609962573942	706.2691377268461	291.1344030014047	5890.6114476286075	1220.774475116916	-118.96825499030554	5886.530212098189	1292.125550982858	-10.920939209124612	5880.315661723235	1051.664570856766	101.60391798629145	5770.885360238377	820.1352051273333	142.29772685095068	5736.157912254775	822.9581480766664	149.20275975636707	5707.203566835304	812.9547617433518	136.55308849287113	5688.938959717729	802.5155960539972	128.10447974848617	5675.337261794574	790.8420201575809	121.36974505470897	5739.235682320111	810.8871122089558	153.38933686470938	5700.266676533403	783.3565913946597	161.8880450662058	5676.054729469127	763.5621822935373	155.7287288086281	5664.074424374829	755.8721528454762	144.31904391651406	5656.230660884286	752.6208528549721	129.76200762460448	5745.895703790761	802.3696342619016	153.50049665010357	5711.488086840918	770.910267014503	161.8534491322297	5686.076846736823	748.275270809843	155.10443202416604	5672.107157515745	738.5007107066859	141.32561700104483	5663.760006007706	734.7016789626516	125.39104157826966	5751.5705848152575	797.0328480445344	153.4887989017695	5725.5879821824865	764.1426992687312	161.33508698230992	5704.525053713037	743.4055320825497	155.40945600810284	5691.6267059091815	733.4416747976728	142.09575452468934	5684.051487984574	729.6158615911949	127.10235750503945	5759.435950135042	791.8506284889278	152.23145207209103	5740.357852352283	758.4073783575435	159.08056604793413	5725.298599093638	740.3721642330719	154.2330462517735	5716.7646722278505	732.4129113895118	144.472397835014	5710.557363480053	728.6258558035217	131.16215310886176
316	1.313	6198.941	914.58397	126.699	6238.593152632521	879.7371531081487	49.66557154597863	6139.07506455727	486.36798553003223	-54.4200463594055	6144.890297028694	95.34828204390959	-133.70976971978578	5993.983219848052	17.71661196710035	-45.73859550059263	6171.961184033422	923.1637160217866	216.69506185804258	6082.089674441064	519.9662377633083	285.65842717034735	5995.557777134775	93.81679268630333	352.268800609415	5875.62112686066	9.958459017795699	229.29985269367964	6140.289590470243	1033.3229641095566	72.37166244002663	6079.968362154352	1086.549067892326	17.826519178272395	6013.753717077691	1135.1351055787698	-41.33297071666904	5945.964082442973	1171.742025273495	-100.55894216965358	5872.5107132617	1211.2798131048178	-162.37094540361323	5804.599467098653	1248.4591267648802	-216.38655162579298	5675.266246711878	1336.8880568204954	-246.38183274385787	5903.5888066898515	1176.109627566524	-163.8909280744504	5882.307446606306	1062.330697449515	-225.21204840934678	5823.3380769112855	941.910544842229	5.015637617338115	5707.448102297137	796.0593091126533	196.62555622122525	5696.513606869392	802.2680660980864	230.8090794008581	5707.148034320413	795.1616743805721	266.0136979710446	5715.22911958876	786.5960709588231	289.859341740254	5722.543644503838	776.3612976387593	309.16452172035196	5695.76270440388	790.0521012148374	231.81946197182404	5689.800365803778	766.6797654981863	281.9099523101888	5697.233445560295	749.4570311420646	315.27805973898194	5708.124715826927	742.9836178502565	331.8647943331066	5721.368811916276	740.4815107681002	342.7887889192932	5698.357374679645	780.9831938910038	228.18058057319783	5693.942041884179	753.2814181558422	275.0694917470095	5702.429177118089	733.3659807157371	310.83625405535844	5715.749623265569	725.0176435908046	330.5382555286343	5730.328829999681	722.01814807668	342.34072908493795	5700.228279296924	775.1538681492528	224.35219197850174	5697.560699353948	745.2129479474239	263.1112940240438	5705.350823401242	726.7516349513235	293.552887392084	5718.4080130125985	718.1132849128677	312.16783902818617	5732.214982644217	715.0154535062592	323.0807004540658	5703.45836591109	769.2586389778721	218.32543872392802	5702.6172914311555	738.0927700582531	250.24525563956044	5709.480477163806	721.7196258463791	273.3092517331967	5719.306849036815	714.6496363764826	286.2521711506381	5731.711617093477	711.4628128835741	295.5537972152373	5890.733731974595	1220.9263684221307	-118.96839974431157	5887.045559122988	1292.9608196429342	-11.290272243739517	5881.661594605081	1053.640172950246	104.18008321367724	5769.302492273473	823.6075336190751	146.3668259983813	5734.377575913715	827.3471830057795	153.8211745310677	5704.694751147499	817.8425896524897	141.4991623027468	5685.870102001259	807.691549513499	133.25106436727629	5671.756413060398	796.2074984407378	126.65981502665706	5737.280097313729	815.1862308243419	157.98177789729266	5697.40777207843	788.5336357851361	167.0788335939856	5672.396872955858	769.1455164202655	161.21401261145098	5659.939411663635	761.5758661416536	149.89661747229596	5651.713894602095	758.3350235032354	135.35472326078673	5743.8200492581955	806.467361507229	157.99105730307403	5708.4664645885105	775.7554224427379	166.87254760198425	5682.170283309249	753.5340926328053	160.42934744165802	5667.618624205081	743.8905244451812	146.7544210124864	5658.850703190323	740.0960115372859	130.8327892978892	5749.434357546939	800.967754688383	157.89328806790974	5722.5549232301	768.6115688819135	166.14197565747358	5700.708738515881	748.2034240708285	160.46617059735016	5687.242694754558	738.3491736926862	147.24379561034374	5679.268843225866	734.5196741162611	132.25835972253822	5757.246586253378	795.5577445493465	156.51014111552456	5737.316913371124	762.4703535614655	163.65491719707865	5721.61573461297	744.6470742117149	158.97959179216255	5712.660605999934	736.7428402548957	149.27208192290033	5706.096073982596	732.938172369929	135.9611342578927
317	1.317	6198.941	914.58397	126.699	6238.392697458557	879.5636468011631	49.63892321967814	6138.844434644175	486.2527049244347	-54.63517255584451	6145.008245670076	95.24757488248135	-133.97907834717697	5994.105278340328	17.602349818789076	-46.01277117477688	6172.146803025608	923.3370585015799	216.73619408452615	6082.378125079719	520.1055740399148	285.6343425409548	5995.754823087964	93.92454885316847	351.9242930337973	5875.839214961583	10.042619426936826	228.95089925903216	6140.364846002859	1033.3320525570891	72.30890780813057	6080.039075278317	1086.5669557663737	17.777231828608638	6013.8094169990445	1135.1662881886214	-41.3546507751998	5945.992697806874	1171.7961610698678	-100.53561294883806	5872.512819232113	1211.3566197665277	-162.301701326404	5804.583670107723	1248.5577720146555	-216.27973697373727	5675.283932844421	1336.9940735598198	-246.4233041694307	5903.49248019853	1176.0934975181433	-163.79238606473749	5881.661213364968	1062.2004674849316	-224.7594074406931	5823.440099149498	943.9357989241037	7.0557817527839575	5706.68529435409	801.0419138745051	200.55396673238945	5696.199501085811	808.0226705688806	235.1418615937194	5707.308432942217	801.130848348142	270.4740996338117	5715.642919827221	792.6624929380755	294.38887638911405	5723.102786131026	782.464154071075	313.7348014579907	5695.191466690396	795.7429984004988	236.1472461354533	5689.331953150601	773.0321848857085	286.65070560625617	5696.954744360016	755.9893336002797	320.15306560116045	5708.083593711188	749.4649742956069	336.723245899291	5721.605031863368	746.8108995273143	347.5660725092788	5697.578628728224	786.4958188554341	232.43301958889666	5693.151313417296	759.3429245754431	279.68401771954234	5701.817895301788	739.5977565939708	315.58580394052854	5715.4117441158905	731.1754689643961	335.26232765339677	5730.287982722047	728.0036230951464	346.97331224473584	5699.298621884592	780.5263012965233	228.5423693137008	5696.484377293967	750.9633111561958	267.57633813700056	5704.402769839822	732.6229177286029	298.1233055014684	5717.7087353594015	723.898638487655	316.70714253841993	5731.787908989592	720.6318364926306	327.5308822148177	5702.365053360225	774.4295437234452	222.4200121385513	5701.2829523629025	743.4951353703077	254.53818936830945	5708.2056043247485	727.1742671950557	277.66614507455097	5718.192514661416	720.0200492339919	290.576491523222	5730.826371709449	716.6711422626081	299.79348549283634	5890.855729175354	1221.0821917992948	-118.962082715925	5887.549841105136	1293.772407038759	-11.651950935172092	5883.022422173742	1055.6087415714144	106.70023076681063	5767.767318541581	827.0890946718022	150.3467547232405	5732.66677359631	831.7436263043455	158.33484794472668	5702.2777178727565	822.7354214013778	146.34245372995576	5682.907003154155	812.8712492467619	138.29765148103635	5668.291676738692	801.576031309434	131.8534244474206	5735.390423062341	819.4942610245014	162.47157032531982	5694.637804492727	793.7198857263619	172.15844981112176	5668.844980658338	774.7373209403698	166.59058543941836	5655.92094909742	767.2867145157489	155.37112136384076	5647.3224404584535	764.054631568213	140.85181160895553	5741.805424866865	810.5750794790494	162.3835288818375	5705.525691245923	780.6114392970856	171.78770709363587	5678.362431588226	758.8031139419948	165.65364943705407	5663.24122986301	749.2889939702586	152.0897246459636	5654.061959184523	745.4971750650017	136.18932919429867	5747.355109147963	804.9134192944567	162.2030493499702	5719.593042501566	773.0926788596564	170.85158438911336	5696.978406486253	753.0131213301818	165.4291677783354	5682.956247938571	743.2670641655243	152.30533300024396	5674.592427479502	739.4321981149559	137.3358224407603	5755.108987147545	799.2763972381011	160.6988347229462	5734.337503599974	766.5467465441506	168.1395864671942	5718.005000322605	748.9352683165214	163.64035576968408	5708.636510588866	741.0851259733688	153.99175290354353	5701.7220816153995	737.26141727923	140.68744891942563
318	1.321	6198.941	914.58397	126.699	6238.193797655419	879.3930544549041	49.612466522813094	6138.617851238606	486.1405467957698	-54.853139725114886	6145.1256133086	95.15022532055781	-134.25171398838026	5994.226683826192	17.491917632985725	-46.289984257493195	6172.330941953534	923.5072799023749	216.77658748787334	6082.663836992259	520.2417801604647	285.6077822944585	5995.951351420798	94.02915399245805	351.57911004695285	5876.056581431526	10.123825335010322	228.60133932163262	6140.439696425191	1033.3419301666104	72.24857844769438	6080.1104313136675	1086.5881085822796	17.731760820259353	6013.866840248746	1135.2032364141476	-41.37155960003438	5946.023857276149	1171.8577132547166	-100.50737773727697	5872.518231452443	1211.4425381332678	-162.22731984827487	5804.571641396236	1248.666831576898	-216.16743615999513	5675.301901429568	1337.1070031961672	-246.4521051815948	5903.40242987651	1176.0906308602555	-163.6898493635051	5881.039116876339	1062.1012876713726	-224.31739720026698	5823.579243118869	945.9525681093218	9.031827178383864	5705.972751203821	806.0189069044876	204.33379193567373	5695.939372340144	813.768823718128	239.29797723388708	5707.50822251539	807.0929752989622	274.738482277211	5716.0854772447165	798.7235017975356	298.71097737206895	5723.681412799659	788.5635206328758	318.0898959777362	5694.6746128687155	801.4272837763272	240.3025134435543	5688.914775957649	779.3799855940607	291.1929065429784	5696.71561883175	762.5197468906775	324.81496426291903	5708.070233014103	755.9461864261748	341.3618376791126	5721.856155093515	753.1416205061826	352.11945602422117	5696.852631487407	792.0036104987563	236.51962674441256	5692.409381007427	765.4025033161009	284.1109324791017	5701.242469023276	745.8308131124692	320.13283136085767	5715.095362720357	737.3367903904046	339.776196515413	5730.254513349069	733.9942633880313	351.3914978530196	5698.420730678726	785.8950978162861	232.57207424215895	5695.455696548836	756.7136544130279	271.8659620167345	5703.490861618142	738.4972074163421	302.50633373818147	5717.031638591051	729.6892583138172	321.0521928702593	5731.369685390753	726.2551132209733	331.78312558051675	5701.321737885578	779.5982038376799	226.36126411332228	5699.994045442698	748.8994020223558	258.66839818457834	5706.966636887893	732.6335775526921	281.85239638766166	5717.103744583739	725.3969454130514	294.72597048194115	5729.954792257331	721.8874923859755	303.8555321406979	5890.977423834825	1221.2417318152284	-118.94953805074128	5888.0429074830145	1294.5602577821776	-12.005786849151924	5884.396007989271	1057.5684033070634	109.16313206510193	5766.281189934234	830.5754517292097	154.23645949646334	5731.026456620187	836.1416076081472	162.74220734529635	5699.95392107495	827.6266617291355	151.08076023774333	5680.0516112148125	818.0476939975767	143.24164017216557	5664.945535743376	806.9403635867554	136.94767473736098	5733.568041803678	823.8054917738718	166.85725456297152	5691.958945973194	798.9083234323093	177.12489217310355	5665.402031577105	780.3300072137564	171.8559813465798	5652.0224798858035	772.9969611391657	160.7397622841097	5643.060100674389	769.7719569989913	146.2501823398206	5739.8535888599545	814.687407496187	166.6765760472455	5702.66849886693	785.4718409233085	176.5971308876849	5674.656951382518	764.0752834189002	170.77505257953322	5658.979217081575	754.6889123341185	157.3288561798538	5649.398420456932	750.8979922125001	141.45766875873426	5745.334841838112	808.8647248716896	166.41685006034257	5716.705422309151	777.5801499751524	175.46235915645428	5693.3379954720285	757.8282948325012	170.29648672500966	5678.7718903568175	748.1888941975436	157.27804343382596	5670.027157187677	744.3470222683188	142.33212559939062	5753.0254252640225	803.0018353763633	164.79642601590064	5731.423047912653	770.631321869967	172.5332531350155	5714.470574649238	753.2312339622786	168.21372298785806	5704.697025738438	745.43420641654	158.62954635108187	5697.440392030932	741.590087572779	145.3389784597841
